# MagicaVoxel @ Ephtracy

# group
o 

# material
mtllib Table_Round_End.mtl
usemtl palette

# normals
vn -1 0 0
vn 1 0 0
vn 0 0 1
vn 0 0 -1
vn 0 -1 0
vn 0 1 0

# texcoords
vt 0.373047 0.5

# verts
v 0 2 -3.3
v 0 2 -4
v 0 6 -3.3
v 0 6 -4
v 0.1 2 -2.9
v 0.1 2 -3.3
v 0.1 6 -2.9
v 0.1 6 -3.3
v 0.2 2 -2.6
v 0.2 2 -2.9
v 0.2 6 -2.6
v 0.2 6 -2.9
v 0.3 2 -2.3
v 0.3 2 -2.6
v 0.3 6 -2.3
v 0.3 6 -2.6
v 0.4 2 -2.1
v 0.4 2 -2.3
v 0.4 6 -2.1
v 0.4 6 -2.3
v 0.5 2 -1.9
v 0.5 2 -2.1
v 0.5 6 -1.9
v 0.5 6 -2.1
v 0.6 2 -1.8
v 0.6 2 -1.9
v 0.6 6 -1.8
v 0.6 6 -1.9
v 0.7 2 -1.6
v 0.7 2 -1.8
v 0.7 6 -1.6
v 0.7 6 -1.8
v 0.8 2 -1.5
v 0.8 2 -1.6
v 0.8 6 -1.5
v 0.8 6 -1.6
v 0.9 2 -1.4
v 0.9 2 -1.5
v 0.9 6 -1.4
v 0.9 6 -1.5
v 1 2 -1.3
v 1 2 -1.4
v 1 6 -1.3
v 1 6 -1.4
v 1.1 2 -1.2
v 1.1 2 -1.3
v 1.1 6 -1.2
v 1.1 6 -1.3
v 1.2 2 -1.1
v 1.2 2 -1.2
v 1.2 6 -1.1
v 1.2 6 -1.2
v 1.3 2 -1
v 1.3 2 -1.1
v 1.3 6 -1
v 1.3 6 -1.1
v 1.4 2 -0.9
v 1.4 2 -1
v 1.4 6 -0.9
v 1.4 6 -1
v 1.5 2 -0.8
v 1.5 2 -0.9
v 1.5 6 -0.8
v 1.5 6 -0.9
v 1.6 2 -0.7
v 1.6 2 -0.8
v 1.6 6 -0.7
v 1.6 6 -0.8
v 1.8 2 -0.6
v 1.8 2 -0.7
v 1.8 6 -0.6
v 1.8 6 -0.7
v 1.9 2 -0.5
v 1.9 2 -0.6
v 1.9 6 -0.5
v 1.9 6 -0.6
v 2.1 2 -0.4
v 2.1 2 -0.5
v 2.1 6 -0.4
v 2.1 6 -0.5
v 2.3 2 -0.3
v 2.3 2 -0.4
v 2.3 6 -0.3
v 2.3 6 -0.4
v 2.6 2 -0.2
v 2.6 2 -0.3
v 2.6 6 -0.2
v 2.6 6 -0.3
v 2.9 2 -0.1
v 2.9 2 -0.2
v 2.9 6 -0.1
v 2.9 6 -0.2
v 3.3 2 0
v 3.3 2 -0.1
v 3.3 6 0
v 3.3 6 -0.1
v 3.9 2 -3.9
v 3.9 2 -4
v 3.9 6 -3.9
v 3.9 6 -4
v 4 2 0
v 4 2 -3.9
v 4 6 0
v 4 6 -3.9
v 3.3 2 0
v 3.3 6 0
v 4 2 0
v 4 6 0
v 2.9 2 -0.1
v 2.9 6 -0.1
v 3.3 2 -0.1
v 3.3 6 -0.1
v 2.6 2 -0.2
v 2.6 6 -0.2
v 2.9 2 -0.2
v 2.9 6 -0.2
v 2.3 2 -0.3
v 2.3 6 -0.3
v 2.6 2 -0.3
v 2.6 6 -0.3
v 2.1 2 -0.4
v 2.1 6 -0.4
v 2.3 2 -0.4
v 2.3 6 -0.4
v 1.9 2 -0.5
v 1.9 6 -0.5
v 2.1 2 -0.5
v 2.1 6 -0.5
v 1.8 2 -0.6
v 1.8 6 -0.6
v 1.9 2 -0.6
v 1.9 6 -0.6
v 1.6 2 -0.7
v 1.6 6 -0.7
v 1.8 2 -0.7
v 1.8 6 -0.7
v 1.5 2 -0.8
v 1.5 6 -0.8
v 1.6 2 -0.8
v 1.6 6 -0.8
v 1.4 2 -0.9
v 1.4 6 -0.9
v 1.5 2 -0.9
v 1.5 6 -0.9
v 1.3 2 -1
v 1.3 6 -1
v 1.4 2 -1
v 1.4 6 -1
v 1.2 2 -1.1
v 1.2 6 -1.1
v 1.3 2 -1.1
v 1.3 6 -1.1
v 1.1 2 -1.2
v 1.1 6 -1.2
v 1.2 2 -1.2
v 1.2 6 -1.2
v 1 2 -1.3
v 1 6 -1.3
v 1.1 2 -1.3
v 1.1 6 -1.3
v 0.9 2 -1.4
v 0.9 6 -1.4
v 1 2 -1.4
v 1 6 -1.4
v 0.8 2 -1.5
v 0.8 6 -1.5
v 0.9 2 -1.5
v 0.9 6 -1.5
v 0.7 2 -1.6
v 0.7 6 -1.6
v 0.8 2 -1.6
v 0.8 6 -1.6
v 0.6 2 -1.8
v 0.6 6 -1.8
v 0.7 2 -1.8
v 0.7 6 -1.8
v 0.5 2 -1.9
v 0.5 6 -1.9
v 0.6 2 -1.9
v 0.6 6 -1.9
v 0.4 2 -2.1
v 0.4 6 -2.1
v 0.5 2 -2.1
v 0.5 6 -2.1
v 0.3 2 -2.3
v 0.3 6 -2.3
v 0.4 2 -2.3
v 0.4 6 -2.3
v 0.2 2 -2.6
v 0.2 6 -2.6
v 0.3 2 -2.6
v 0.3 6 -2.6
v 0.1 2 -2.9
v 0.1 6 -2.9
v 0.2 2 -2.9
v 0.2 6 -2.9
v 0 2 -3.3
v 0 6 -3.3
v 0.1 2 -3.3
v 0.1 6 -3.3
v 3.9 2 -3.9
v 3.9 6 -3.9
v 4 2 -3.9
v 4 6 -3.9
v 0 2 -4
v 0 6 -4
v 3.9 2 -4
v 3.9 6 -4
v 3.3 2 0
v 4 2 0
v 2.9 2 -0.1
v 3.3 2 -0.1
v 2.6 2 -0.2
v 2.9 2 -0.2
v 2.3 2 -0.3
v 2.6 2 -0.3
v 2.1 2 -0.4
v 2.3 2 -0.4
v 1.9 2 -0.5
v 2.1 2 -0.5
v 1.8 2 -0.6
v 1.9 2 -0.6
v 1.6 2 -0.7
v 1.8 2 -0.7
v 1.5 2 -0.8
v 1.6 2 -0.8
v 1.4 2 -0.9
v 1.5 2 -0.9
v 1.3 2 -1
v 1.4 2 -1
v 1.2 2 -1.1
v 1.3 2 -1.1
v 1.1 2 -1.2
v 1.2 2 -1.2
v 1 2 -1.3
v 1.1 2 -1.3
v 0.9 2 -1.4
v 1 2 -1.4
v 0.8 2 -1.5
v 0.9 2 -1.5
v 0.7 2 -1.6
v 0.8 2 -1.6
v 0.6 2 -1.8
v 0.7 2 -1.8
v 0.5 2 -1.9
v 0.6 2 -1.9
v 0.4 2 -2.1
v 0.5 2 -2.1
v 0.3 2 -2.3
v 0.4 2 -2.3
v 0.2 2 -2.6
v 0.3 2 -2.6
v 0.1 2 -2.9
v 0.2 2 -2.9
v 0 2 -3.3
v 0.1 2 -3.3
v 3.9 2 -3.9
v 4 2 -3.9
v 0 2 -4
v 3.9 2 -4
v 3.3 6 0
v 4 6 0
v 2.9 6 -0.1
v 3.3 6 -0.1
v 2.6 6 -0.2
v 2.9 6 -0.2
v 2.3 6 -0.3
v 2.6 6 -0.3
v 2.1 6 -0.4
v 2.3 6 -0.4
v 1.9 6 -0.5
v 2.1 6 -0.5
v 1.8 6 -0.6
v 1.9 6 -0.6
v 1.6 6 -0.7
v 1.8 6 -0.7
v 1.5 6 -0.8
v 1.6 6 -0.8
v 1.4 6 -0.9
v 1.5 6 -0.9
v 1.3 6 -1
v 1.4 6 -1
v 1.2 6 -1.1
v 1.3 6 -1.1
v 1.1 6 -1.2
v 1.2 6 -1.2
v 1 6 -1.3
v 1.1 6 -1.3
v 0.9 6 -1.4
v 1 6 -1.4
v 0.8 6 -1.5
v 0.9 6 -1.5
v 0.7 6 -1.6
v 0.8 6 -1.6
v 0.6 6 -1.8
v 0.7 6 -1.8
v 0.5 6 -1.9
v 0.6 6 -1.9
v 0.4 6 -2.1
v 0.5 6 -2.1
v 0.3 6 -2.3
v 0.4 6 -2.3
v 0.2 6 -2.6
v 0.3 6 -2.6
v 0.1 6 -2.9
v 0.2 6 -2.9
v 0 6 -3.3
v 0.1 6 -3.3
v 3.9 6 -3.9
v 4 6 -3.9
v 0 6 -4
v 3.9 6 -4

# faces
f 3/1/1 2/1/1 1/1/1
f 4/1/1 2/1/1 3/1/1
f 7/1/1 6/1/1 5/1/1
f 8/1/1 6/1/1 7/1/1
f 11/1/1 10/1/1 9/1/1
f 12/1/1 10/1/1 11/1/1
f 15/1/1 14/1/1 13/1/1
f 16/1/1 14/1/1 15/1/1
f 19/1/1 18/1/1 17/1/1
f 20/1/1 18/1/1 19/1/1
f 23/1/1 22/1/1 21/1/1
f 24/1/1 22/1/1 23/1/1
f 27/1/1 26/1/1 25/1/1
f 28/1/1 26/1/1 27/1/1
f 31/1/1 30/1/1 29/1/1
f 32/1/1 30/1/1 31/1/1
f 35/1/1 34/1/1 33/1/1
f 36/1/1 34/1/1 35/1/1
f 39/1/1 38/1/1 37/1/1
f 40/1/1 38/1/1 39/1/1
f 43/1/1 42/1/1 41/1/1
f 44/1/1 42/1/1 43/1/1
f 47/1/1 46/1/1 45/1/1
f 48/1/1 46/1/1 47/1/1
f 51/1/1 50/1/1 49/1/1
f 52/1/1 50/1/1 51/1/1
f 55/1/1 54/1/1 53/1/1
f 56/1/1 54/1/1 55/1/1
f 59/1/1 58/1/1 57/1/1
f 60/1/1 58/1/1 59/1/1
f 63/1/1 62/1/1 61/1/1
f 64/1/1 62/1/1 63/1/1
f 67/1/1 66/1/1 65/1/1
f 68/1/1 66/1/1 67/1/1
f 71/1/1 70/1/1 69/1/1
f 72/1/1 70/1/1 71/1/1
f 75/1/1 74/1/1 73/1/1
f 76/1/1 74/1/1 75/1/1
f 79/1/1 78/1/1 77/1/1
f 80/1/1 78/1/1 79/1/1
f 83/1/1 82/1/1 81/1/1
f 84/1/1 82/1/1 83/1/1
f 87/1/1 86/1/1 85/1/1
f 88/1/1 86/1/1 87/1/1
f 91/1/1 90/1/1 89/1/1
f 92/1/1 90/1/1 91/1/1
f 95/1/1 94/1/1 93/1/1
f 96/1/1 94/1/1 95/1/1
f 97/1/2 98/1/2 99/1/2
f 99/1/2 98/1/2 100/1/2
f 101/1/2 102/1/2 103/1/2
f 103/1/2 102/1/2 104/1/2
f 107/1/3 106/1/3 105/1/3
f 108/1/3 106/1/3 107/1/3
f 111/1/3 110/1/3 109/1/3
f 112/1/3 110/1/3 111/1/3
f 115/1/3 114/1/3 113/1/3
f 116/1/3 114/1/3 115/1/3
f 119/1/3 118/1/3 117/1/3
f 120/1/3 118/1/3 119/1/3
f 123/1/3 122/1/3 121/1/3
f 124/1/3 122/1/3 123/1/3
f 127/1/3 126/1/3 125/1/3
f 128/1/3 126/1/3 127/1/3
f 131/1/3 130/1/3 129/1/3
f 132/1/3 130/1/3 131/1/3
f 135/1/3 134/1/3 133/1/3
f 136/1/3 134/1/3 135/1/3
f 139/1/3 138/1/3 137/1/3
f 140/1/3 138/1/3 139/1/3
f 143/1/3 142/1/3 141/1/3
f 144/1/3 142/1/3 143/1/3
f 147/1/3 146/1/3 145/1/3
f 148/1/3 146/1/3 147/1/3
f 151/1/3 150/1/3 149/1/3
f 152/1/3 150/1/3 151/1/3
f 155/1/3 154/1/3 153/1/3
f 156/1/3 154/1/3 155/1/3
f 159/1/3 158/1/3 157/1/3
f 160/1/3 158/1/3 159/1/3
f 163/1/3 162/1/3 161/1/3
f 164/1/3 162/1/3 163/1/3
f 167/1/3 166/1/3 165/1/3
f 168/1/3 166/1/3 167/1/3
f 171/1/3 170/1/3 169/1/3
f 172/1/3 170/1/3 171/1/3
f 175/1/3 174/1/3 173/1/3
f 176/1/3 174/1/3 175/1/3
f 179/1/3 178/1/3 177/1/3
f 180/1/3 178/1/3 179/1/3
f 183/1/3 182/1/3 181/1/3
f 184/1/3 182/1/3 183/1/3
f 187/1/3 186/1/3 185/1/3
f 188/1/3 186/1/3 187/1/3
f 191/1/3 190/1/3 189/1/3
f 192/1/3 190/1/3 191/1/3
f 195/1/3 194/1/3 193/1/3
f 196/1/3 194/1/3 195/1/3
f 199/1/3 198/1/3 197/1/3
f 200/1/3 198/1/3 199/1/3
f 201/1/4 202/1/4 203/1/4
f 203/1/4 202/1/4 204/1/4
f 205/1/4 206/1/4 207/1/4
f 207/1/4 206/1/4 208/1/4
f 212/1/5 210/1/5 209/1/5
f 214/1/5 212/1/5 211/1/5
f 216/1/5 214/1/5 213/1/5
f 218/1/5 216/1/5 215/1/5
f 220/1/5 218/1/5 217/1/5
f 222/1/5 220/1/5 219/1/5
f 224/1/5 222/1/5 221/1/5
f 226/1/5 224/1/5 223/1/5
f 228/1/5 226/1/5 225/1/5
f 230/1/5 228/1/5 227/1/5
f 232/1/5 230/1/5 229/1/5
f 234/1/5 232/1/5 231/1/5
f 236/1/5 234/1/5 233/1/5
f 238/1/5 236/1/5 235/1/5
f 240/1/5 238/1/5 237/1/5
f 242/1/5 240/1/5 239/1/5
f 244/1/5 242/1/5 241/1/5
f 246/1/5 244/1/5 243/1/5
f 248/1/5 246/1/5 245/1/5
f 250/1/5 248/1/5 247/1/5
f 252/1/5 250/1/5 249/1/5
f 254/1/5 252/1/5 251/1/5
f 256/1/5 254/1/5 253/1/5
f 257/1/5 210/1/5 212/1/5
f 257/1/5 256/1/5 255/1/5
f 257/1/5 254/1/5 256/1/5
f 257/1/5 212/1/5 214/1/5
f 257/1/5 252/1/5 254/1/5
f 257/1/5 214/1/5 216/1/5
f 257/1/5 250/1/5 252/1/5
f 257/1/5 216/1/5 218/1/5
f 257/1/5 248/1/5 250/1/5
f 257/1/5 218/1/5 220/1/5
f 257/1/5 246/1/5 248/1/5
f 257/1/5 220/1/5 222/1/5
f 257/1/5 244/1/5 246/1/5
f 257/1/5 222/1/5 224/1/5
f 257/1/5 242/1/5 244/1/5
f 257/1/5 224/1/5 226/1/5
f 257/1/5 240/1/5 242/1/5
f 257/1/5 226/1/5 228/1/5
f 257/1/5 238/1/5 240/1/5
f 257/1/5 228/1/5 230/1/5
f 257/1/5 236/1/5 238/1/5
f 257/1/5 230/1/5 232/1/5
f 257/1/5 234/1/5 236/1/5
f 257/1/5 232/1/5 234/1/5
f 258/1/5 210/1/5 257/1/5
f 259/1/5 257/1/5 255/1/5
f 260/1/5 257/1/5 259/1/5
f 261/1/6 262/1/6 264/1/6
f 263/1/6 264/1/6 266/1/6
f 265/1/6 266/1/6 268/1/6
f 267/1/6 268/1/6 270/1/6
f 269/1/6 270/1/6 272/1/6
f 271/1/6 272/1/6 274/1/6
f 273/1/6 274/1/6 276/1/6
f 275/1/6 276/1/6 278/1/6
f 277/1/6 278/1/6 280/1/6
f 279/1/6 280/1/6 282/1/6
f 281/1/6 282/1/6 284/1/6
f 283/1/6 284/1/6 286/1/6
f 285/1/6 286/1/6 288/1/6
f 287/1/6 288/1/6 290/1/6
f 289/1/6 290/1/6 292/1/6
f 291/1/6 292/1/6 294/1/6
f 293/1/6 294/1/6 296/1/6
f 295/1/6 296/1/6 298/1/6
f 297/1/6 298/1/6 300/1/6
f 299/1/6 300/1/6 302/1/6
f 301/1/6 302/1/6 304/1/6
f 303/1/6 304/1/6 306/1/6
f 305/1/6 306/1/6 308/1/6
f 264/1/6 262/1/6 309/1/6
f 307/1/6 308/1/6 309/1/6
f 308/1/6 306/1/6 309/1/6
f 266/1/6 264/1/6 309/1/6
f 306/1/6 304/1/6 309/1/6
f 268/1/6 266/1/6 309/1/6
f 304/1/6 302/1/6 309/1/6
f 270/1/6 268/1/6 309/1/6
f 302/1/6 300/1/6 309/1/6
f 272/1/6 270/1/6 309/1/6
f 300/1/6 298/1/6 309/1/6
f 274/1/6 272/1/6 309/1/6
f 298/1/6 296/1/6 309/1/6
f 276/1/6 274/1/6 309/1/6
f 296/1/6 294/1/6 309/1/6
f 278/1/6 276/1/6 309/1/6
f 294/1/6 292/1/6 309/1/6
f 280/1/6 278/1/6 309/1/6
f 292/1/6 290/1/6 309/1/6
f 282/1/6 280/1/6 309/1/6
f 290/1/6 288/1/6 309/1/6
f 284/1/6 282/1/6 309/1/6
f 288/1/6 286/1/6 309/1/6
f 286/1/6 284/1/6 309/1/6
f 309/1/6 262/1/6 310/1/6
f 307/1/6 309/1/6 311/1/6
f 311/1/6 309/1/6 312/1/6
